 http://desibbrg.org/images/85214856223899147872.gif 
http://desibbrg.org/images/18684524387432769525.jpg 
http://desibbrg.org/images/96648719548334489461.jpg 
http://desibbrg.org/images/27777513144911967462.jpg 
http://desibbrg.org/images/83809743517745088274.jpg
 
http://i1306.photobucket.com/albums/s570/zyx55e/oie_11162011MOJeDGQI_zpsc25b2b81.gif
Video
ID : 1
Format : AVC
Format/Info : Advanced Video Codec
Format profile : High@L4.1
Format settings, CABAC : Yes
Format settings, ReFrames : 8 frames
Codec ID : V_MPEG4/ISO/AVC
Duration : 2h 44mn
Bit rate : 1 712 Kbps
Width : 1 280 pixels
Height : 544 pixels
Display aspect ratio : 2.35:1
Frame rate : 24.000 fps
Color space : YUV
Chroma subsampling : 4:2:0
Bit depth : 8 bits
Scan type : Progressive
Bits/(Pixel*Frame) : 0.102
Stream size : 1.92 GiB (88%)
Writing library : x264 core 75 r1247 b3efbe5
Language : English
Default : Yes
Forced : No

Audio
ID : 2
Format : AC-3
Format/Info : Audio Coding 3
Mode extension : CM (complete main)
Codec ID : A_AC3
Duration : 2h 44mn
Bit rate mode : Constant
Bit rate : 192 Kbps
Channel(s) : 6 channels
Channel positions : Front: L C R, Side: L R, LFE
Sampling rate : 48.0 KHz
Bit depth : 16 bits
Compression mode : Lossy
Stream size : 225 MiB (10%)
Language : Hindi
Default : Yes
Forced : No

Ripper : NhaNc3

Seeding 24x7... Extreme Seeding...

 
http://i1306.photobucket.com/albums/s570/zyx55e/oie_1117625zVIGKvnK_zpsc8b6e055.gif
